<svg width="1158" height="331" viewBox="0 0 1158 331" fill="none" xmlns="http://www.w3.org/2000/svg">
<path fill-rule="evenodd" clip-rule="evenodd" d="M61.8695 135.513L61.8695 150.032L106.291 150.032L70.3516 114.092L80.6175 103.827L36.8699 60.079L69.6814 27.2674L113.429 71.015L103.163 81.2826L134.563 112.683L134.563 61.8695L149.082 61.8695L149.082 -6.51659e-06L195.483 -8.54485e-06L195.483 61.8695L180.965 61.8695L180.965 106.294L216.907 70.3516L227.173 80.6175L270.921 36.8699L303.732 69.6814L259.985 113.429L249.717 103.163L218.313 134.567L269.13 134.567L269.13 149.086L331 149.086L331 195.487L269.13 195.487L269.13 180.968L224.709 180.968L260.648 216.907L250.382 227.173L294.13 270.921L261.318 303.732L217.57 259.985L227.836 249.717L196.436 218.317L196.436 269.13L181.917 269.13L181.917 331L135.516 331L135.516 269.13L150.035 269.13L150.035 224.705L114.092 260.648L103.827 250.382L60.079 294.13L27.2674 261.318L71.015 217.57L81.2826 227.836L112.686 196.433L61.8695 196.433L61.8695 181.914L-6.51674e-06 181.914L-8.545e-06 135.513L61.8695 135.513ZM142.299 175.109L155.891 188.7L175.107 188.7L188.7 175.107L188.7 155.891L175.107 142.299L155.891 142.299L142.299 155.892L142.299 175.109Z" fill="#FA3200"/>
<path d="M513.436 268H415.584V52.082H520.467C546.932 52.4727 565.682 60.1387 576.717 75.0801C583.357 84.2598 586.678 95.2461 586.678 108.039C586.678 121.223 583.357 131.818 576.717 139.826C573.006 144.318 567.537 148.42 560.311 152.131C571.346 156.135 579.646 162.482 585.213 171.174C590.877 179.865 593.709 190.412 593.709 202.814C593.709 215.607 590.486 227.082 584.041 237.238C579.939 243.977 574.812 249.641 568.66 254.23C561.727 259.504 553.523 263.117 544.051 265.07C534.676 267.023 524.471 268 513.436 268ZM512.41 172.932H458.65V230.5H511.678C521.15 230.5 528.523 229.23 533.797 226.691C543.367 222.004 548.152 213.02 548.152 199.738C548.152 188.508 543.514 180.793 534.236 176.594C529.061 174.25 521.785 173.029 512.41 172.932ZM534.822 131.77C540.682 128.254 543.611 121.955 543.611 112.873C543.611 102.814 539.705 96.1738 531.893 92.9512C525.154 90.7051 516.561 89.582 506.111 89.582H458.65V137.189H511.678C521.15 137.189 528.865 135.383 534.822 131.77Z" fill="#0D0D0D"/>
<path d="M724.672 245.441C724.281 245.93 723.305 247.395 721.742 249.836C720.18 252.277 718.324 254.426 716.176 256.281C709.633 262.141 703.285 266.145 697.133 268.293C691.078 270.441 683.949 271.516 675.746 271.516C652.113 271.516 636.195 263.02 627.992 246.027C623.402 236.652 621.107 222.834 621.107 204.572V108.332H663.881V204.572C663.881 213.654 664.955 220.49 667.104 225.08C670.912 233.186 678.383 237.238 689.516 237.238C703.773 237.238 713.539 231.477 718.812 219.953C721.547 213.703 722.914 205.451 722.914 195.197V108.332H765.248V268H724.672V245.441Z" fill="#0D0D0D"/>
<path d="M800.557 52.082H842.305V268H800.557V52.082Z" fill="#0D0D0D"/>
<path d="M878.053 52.082H919.801V268H878.053V52.082Z" fill="#0D0D0D"/>
<path d="M1087.82 269.172C1078.16 272.395 1066.58 274.006 1053.11 274.006C1024.98 274.006 1001.74 265.607 983.381 248.811C961.115 228.596 949.982 198.908 949.982 159.748C949.982 120.295 961.408 90.4609 984.26 70.2461C1002.91 53.7422 1026.11 45.4902 1053.84 45.4902C1081.77 45.4902 1105.21 54.2305 1124.15 71.7109C1146.03 91.9258 1156.96 120.197 1156.96 156.525C1156.96 175.764 1154.62 191.877 1149.93 204.865C1146.12 217.268 1140.51 227.57 1133.09 235.773L1157.99 259.064L1134.41 283.674L1108.33 259.064C1100.42 263.85 1093.59 267.219 1087.82 269.172ZM1078.16 230.207L1056.33 209.406L1079.62 185.09L1101.45 205.891C1104.87 198.859 1107.26 192.707 1108.62 187.434C1110.77 179.523 1111.85 170.295 1111.85 159.748C1111.85 135.529 1106.87 116.828 1096.91 103.645C1087.04 90.3633 1072.59 83.7227 1053.55 83.7227C1035.68 83.7227 1021.42 90.0703 1010.77 102.766C1000.13 115.461 994.807 134.455 994.807 159.748C994.807 189.338 1002.42 210.529 1017.66 223.322C1027.52 231.623 1039.34 235.773 1053.11 235.773C1058.28 235.773 1063.26 235.139 1068.05 233.869C1070.69 233.186 1074.05 231.965 1078.16 230.207Z" fill="#0D0D0D"/>
</svg>
